#!OML:ASF H:\Punching\Project 1\Capture day 1\Session 1\female.ASF
:FULLY-SPECIFIED
:DEGREES
609
root -1.67752 15.0815 6.45427 16.0222 17.7958 0.407722
lowerback 1.8153 -0.558965 0.782429
upperback -4.65191 -0.739565 -0.749053
thorax -5.85621 -0.417869 -1.16526
lowerneck -7.10535 0.140839 9.06843
upperneck 28.9298 -2.2982 3.56474
head 10.4533 0.372505 -0.518558
rclavicle 3.77939e-014 -4.96962e-015
rhumerus 9.77114 19.6117 -77.1574
rradius 135.634
rwrist -43.8726
rhand -20.9752 -5.84606
rfingers 7.12502
rthumb 5.39833 -35.7573
lclavicle 3.77939e-014 -4.96962e-015
lhumerus 11.5604 -27.0285 78.1811
lradius 139.4
lwrist 36.7835
lhand -14.6864 33.312
lfingers 7.12502
lthumb 11.4672 62.9784
rfemur -41.5944 -1.67453 12.17
rtibia 47.6411
rfoot -16.655 -14.4885
rtoes -4.74721
lfemur -0.910232 -11.4965 1.4051
ltibia 6.15117
lfoot -11.6122 0.74132
ltoes -27.5634
610
root -1.69038 15.0904 6.46452 15.805 19.5381 0.250949
lowerback 1.99641 -0.381744 1.29001
upperback -4.63588 -0.4593 -0.456559
thorax -5.93813 -0.294577 -1.16457
lowerneck -7.3107 -0.493457 8.23747
upperneck 28.7452 -3.20992 4.16524
head 10.4151 -0.0636179 -0.262068
rclavicle -3.28616e-015 -1.25731e-014
rhumerus 9.69806 18.5872 -76.5682
rradius 135.907
rwrist -44.2073
rhand -21.0112 -5.86972
rfingers 7.12502
rthumb 5.36351 -35.7818
lclavicle -3.28616e-015 -1.25731e-014
lhumerus 11.3477 -28.5959 78.4885
lradius 141.066
lwrist 36.693
lhand -14.9209 33.5078
lfingers 7.12502
lthumb 11.241 63.1866
rfemur -40.7584 -2.44186 12.5504
rtibia 47.4729
rfoot -16.8599 -15.2117
rtoes -4.66221
lfemur -2.28896 -12.7605 1.99167
ltibia 7.59544
lfoot -12.1409 1.33706
ltoes -27.0238
611
root -1.70172 15.0972 6.47371 15.5759 21.0151 0.0807361
lowerback 2.18338 -0.171118 1.73943
upperback -4.63518 -0.135713 -0.191133
thorax -6.03656 -0.148347 -1.16372
lowerneck -7.46599 -1.08541 7.46433
upperneck 28.5469 -4.05861 4.75117
head 10.3779 -0.467747 -0.0144639
rclavicle 3.80983e-014 2.28602e-015
rhumerus 9.58651 17.6151 -76.067
rradius 136.143
rwrist -44.456
rhand -21.0805 -5.91197
rfingers 7.12502
rthumb 5.29663 -35.8258
lclavicle 3.80983e-014 2.28602e-015
lhumerus 11.1817 -29.9562 78.7236
lradius 142.482
lwrist 36.4716
lhand -15.0299 33.6566
lfingers 7.12502
lthumb 11.1359 63.3412
rfemur -40.0215 -3.02518 12.8956
rtibia 47.3279
rfoot -17.0249 -15.8862
rtoes -4.54997
lfemur -3.39492 -13.7866 2.52809
ltibia 8.74961
lfoot -12.5624 1.85788
ltoes -26.5856
612
root -1.71142 15.1022 6.482 15.3648 22.2078 -0.0659777
lowerback 2.35813 0.072111 2.09878
upperback -4.64909 0.227047 0.0330669
thorax -6.14043 0.0199085 -1.15956
lowerneck -7.58701 -1.62576 6.75884
upperneck 28.3574 -4.83415 5.30986
head 10.3499 -0.834519 0.219195
rclavicle 2.42269e-014 2.00773e-014
rhumerus 9.45465 16.6993 -75.6661
rradius 136.331
rwrist -44.6503
rhand -21.1682 -5.97403
rfingers 7.12502
rthumb 5.21194 -35.8899
lclavicle 2.42269e-014 2.00773e-014
lhumerus 11.0502 -31.1257 78.8919
lradius 143.624
lwrist 36.1211
lhand -14.9872 33.721
lfingers 7.12502
lthumb 11.1771 63.4033
rfemur -39.4107 -3.42778 13.1674
rtibia 47.2228
rfoot -17.1579 -16.4976
rtoes -4.41689
lfemur -4.25644 -14.567 2.95746
ltibia 9.66848
lfoot -12.8902 2.30037
ltoes -26.2693
613
root -1.71971 15.1056 6.48954 15.2034 23.1213 -0.156834
lowerback 2.50483 0.337925 2.34346
upperback -4.68573 0.61255 0.205709
thorax -6.2503 0.202915 -1.14788
lowerneck -7.66116 -2.10568 6.13739
upperneck 28.1952 -5.5238 5.82517
head 10.3315 -1.1577 0.432224
rclavicle -3.37437e-014 -8.15017e-015
rhumerus 9.29969 15.8731 -75.3875
rradius 136.477
rwrist -44.8023
rhand -21.2949 -6.06777
rfingers 7.12502
rthumb 5.08959 -35.9867
lclavicle -3.37437e-014 -8.15017e-015
lhumerus 10.9245 -32.1416 79.0009
lradius 144.482
lwrist 35.6361
lhand -14.8109 33.719
lfingers 7.12502
lthumb 11.3471 63.3921
rfemur -38.9468 -3.67202 13.3409
rtibia 47.1707
rfoot -17.2643 -17.0374
rtoes -4.27992
lfemur -4.8989 -15.0951 3.24456
ltibia 10.3695
lfoot -13.1228 2.65051
ltoes -26.0919
614
root -1.72657 15.1078 6.49632 15.1096 23.7671 -0.174584
lowerback 2.6148 0.620971 2.47243
upperback -4.74574 1.01178 0.317188
thorax -6.363 0.396137 -1.13725
lowerneck -7.6966 -2.52036 5.61268
upperneck 28.0722 -6.12293 6.28552
head 10.3247 -1.43455 0.619214
rclavicle 5.27773e-014 1.27222e-014
rhumerus 9.13323 15.1439 -75.2413
rradius 136.583
rwrist -44.9348
rhand -21.4022 -6.16968
rfingers 7.12502
rthumb 4.98599 -36.091
lclavicle 5.27773e-014 1.27222e-014
lhumerus 10.8186 -33.0539 79.0458
lradius 145.045
lwrist 35.0248
lhand -14.5534 33.6692
lfingers 7.12502
lthumb 11.5955 63.3283
rfemur -38.638 -3.78699 13.4072
rtibia 47.1753
rfoot -17.3463 -17.4922
rtoes -4.1466
lfemur -5.33761 -15.2171 3.3579
ltibia 10.864
lfoot -13.2457 2.74107
ltoes -26.0574
615
root -1.73197 15.1091 6.50229 15.0872 24.1627 -0.126782
lowerback 2.67995 0.903679 2.49294
upperback -4.81795 1.40082 0.379261
thorax -6.46399 0.588127 -1.11708
lowerneck -7.7273 -2.85382 5.18826
upperneck 28.0007 -6.61071 6.6735
head 10.3361 -1.65603 0.775482
rclavicle -2.83765e-014 -2.46493e-014
rhumerus 8.99627 14.5491 -75.2277
rradius 136.654
rwrist -45.0675
rhand -21.4946 -6.26634
rfingers 7.12502
rthumb 4.8968 -36.1898
lclavicle -2.83765e-014 -2.46493e-014
lhumerus 10.7507 -33.8717 79.0188
lradius 145.325
lwrist 34.3009
lhand -14.2812 33.5892
lfingers 7.12502
lthumb 11.858 63.2335
rfemur -38.4831 -3.79844 13.3822
rtibia 47.2308
rfoot -17.4005 -17.8523
rtoes -4.02824
lfemur -5.60054 -15.3326 3.34962
ltibia 11.1594
lfoot -13.3029 2.94571
ltoes -26.1313
